<?xml version="1.0" encoding="UTF-8"?>
<svg id="Layer_1" data-name="Layer 1" xmlns="http://www.w3.org/2000/svg" version="1.1" viewBox="0 0 500 500">
  <defs>
    <style>
      .cls-1 {
        fill: #010101;
      }

      .cls-1, .cls-2 {
        stroke-width: 0px;
      }

      .cls-2 {
        fill: #fff;
      }
    </style>
  </defs>
  <ellipse class="cls-1" cx="244.77" cy="251.38" rx="194.03" ry="190.3"/>
  <path class="cls-2" d="M369.7,189.36c-1.71-16.39-8.11-30.89-20.54-42.51-13.06-12.23-29.05-17.63-46.57-18.55-29.85-1.6-100.73-2.61-125.61,1.38-28.44,4.54-47.08,20.82-54.95,48.37-6.05,21.19-4.85,118.87-1.32,139.82,4.82,28.64,22.08,47.01,51.02,54.32,20.03,5.07,118.48,4.42,140.58.91,29.23-4.63,48.03-21.47,55.63-49.81,5.81-21.75,3.77-114.32,1.74-133.94ZM346.32,313.82c-3.4,21.76-18.12,35.23-40.43,37.62-20.48,2.2-111.97,3.41-130.97-1.8-18.17-4.98-28.57-17.24-31.59-35.18-2.88-17.14-3.6-102.77-.04-125.69,3.35-21.57,18.07-35.03,40.24-37.46,22.5-2.47,103.46-2.74,125.01.49,22.14,3.33,35.86,17.8,38.29,39.71,2.27,20.44,2.91,100.34-.52,122.3ZM244.79,187.54c-35.96-.02-65.14,28.56-65.16,63.83-.02,35.27,29.12,63.88,65.09,63.9,35.96.02,65.14-28.56,65.16-63.83.02-35.27-29.12-63.88-65.09-63.9ZM244.35,292.66c-23.26-.21-41.94-18.86-41.73-41.67.21-22.81,19.23-41.13,42.49-40.93,23.26.21,41.94,18.86,41.73,41.67-.21,22.81-19.23,41.13-42.49,40.93ZM327.7,185.12c-.02,8.26-6.86,14.94-15.28,14.92-8.42-.02-15.23-6.73-15.21-14.99.02-8.26,6.86-14.94,15.28-14.92,8.42.02,15.23,6.73,15.21,14.99Z"/>
</svg>