<?xml version="1.0" encoding="UTF-8"?>
<svg id="Layer_1" data-name="Layer 1" xmlns="http://www.w3.org/2000/svg" version="1.1" viewBox="0 0 500 500">
  <defs>
    <style>
      .cls-1 {
        fill: #010101;
      }

      .cls-1, .cls-2 {
        stroke-width: 0px;
      }

      .cls-2 {
        fill: #fff;
      }
    </style>
  </defs>
  <ellipse class="cls-1" cx="244.52" cy="263.18" rx="194.03" ry="190.3"/>
  <g>
    <path class="cls-2" d="M358.07,236.49h-41.77v37.48c0,21.14-17.54,38.33-39.09,38.33h-42.59c.1,11.96,10.01,21.63,22.23,21.63h40.1c10.62,7.12,21.24,14.24,31.86,21.36,1.25.84,2.94-.09,2.87-1.57-.33-6.6-.66-13.19-1-19.79h27.38c12.28,0,22.24-9.76,22.24-21.81v-53.83c0-12.04-9.96-21.81-22.24-21.81Z"/>
    <path class="cls-2" d="M307.56,273.98v-73.47c0-16.44-13.59-29.76-30.35-29.76h-138.13c-16.76,0-30.35,13.32-30.35,29.76v73.47c0,16.44,13.59,29.76,30.35,29.76h37.37c-.45,9-.91,18.01-1.36,27.01-.1,2.03,2.2,3.29,3.91,2.15,14.49-9.72,28.99-19.44,43.48-29.16h54.73c16.76,0,30.35-13.32,30.35-29.76Z"/>
  </g>
</svg>