<?xml version="1.0" encoding="UTF-8"?>
<svg id="Layer_1" data-name="Layer 1" xmlns="http://www.w3.org/2000/svg" version="1.1" viewBox="0 0 500 500">
  <defs>
    <style>
      .cls-1 {
        fill: #fff;
        fill-rule: evenodd;
      }

      .cls-1, .cls-2 {
        stroke-width: 0px;
      }

      .cls-2 {
        fill: #010101;
      }
    </style>
  </defs>
  <ellipse class="cls-2" cx="255.33" cy="251.38" rx="194.03" ry="190.3"/>
  <path class="cls-1" d="M282.3,303.9c-1.68,1.99-3.5,3.28-5.56,3.8-2.63.66-5.07-.04-6.73-.69-25.02-9.85-43.32-27.8-43.32-27.8,0,0-18.28-17.93-28.33-42.46-.67-1.63-1.38-4.02-.7-6.6.53-2.02,1.84-3.8,3.87-5.45,22.48-18.41,29.09-20.33,24.35-29.87-21.24-42.72-21.4-46.94-26.28-48.85-12.96-5.06-27.64,4.11-29.73,5.42-20.88,13.05-25.32,40.41-24.89,49.91,1.32,28.96,17.25,68.95,52.02,106.52,37.71,37.37,80.15,55.31,109.14,51.53,3.7-.48,38.33-3.82,50.89-24.41,1.43-2.35,10.64-16.55,5.53-29.16-1.94-4.78-5.13-7.35-49.81-25.78-2.27-.94-6.81-4.2-30.46,23.88Z"/>
</svg>