<?xml version="1.0" encoding="UTF-8"?>
<svg id="Layer_1" data-name="Layer 1" xmlns="http://www.w3.org/2000/svg" version="1.1" viewBox="0 0 500 500">
  <defs>
    <style>
      .cls-1 {
        fill: #fff;
        fill-rule: evenodd;
      }

      .cls-1, .cls-2 {
        stroke-width: 0px;
      }

      .cls-2 {
        fill: #010101;
      }
    </style>
  </defs>
  <ellipse class="cls-2" cx="255.02" cy="251.38" rx="194.03" ry="190.3"/>
  <g>
    <path class="cls-1" d="M128.09,376.53c1.43-5.4,2.67-10.1,3.96-14.81,4.2-15.03,8.51-30.03,12.49-45.1.58-2.25.33-5.23-.76-7.25-38.94-72.79,1.24-160.91,82.96-179.72,74.21-17.06,140.92,32.06,153.11,97.76,12.67,68.52-33.03,133.62-102.34,145.51-27.55,4.67-53.89.7-79.05-11.29-2.24-1.09-5.4-1.39-7.79-.83-33.52,8.24-55.81,14.44-62.57,15.73ZM157.57,348.02c12.61-3.22,24.23-6.06,35.73-9.25,3.26-.86,5.77-.39,8.64,1.23,21.79,12.32,45.14,16.92,70.09,12.98,57.45-9.04,96.81-61.76,88.02-117.89-9.13-58.19-64.75-97.23-123.53-86.66-71.11,12.81-108.86,90.57-73.5,152.13,3.92,6.82,5,12.45,2.36,19.7-3.14,8.74-5.08,17.85-7.81,27.75Z"/>
    <path class="cls-1" d="M288.41,309.93c-24.71-.86-64.08-20-91.04-65.93-9.57-16.32-8.19-34.94,5.84-47.72,4.74-4.34,10.69-3.28,16.26-2.35,1.37.2,2.79,2.25,3.48,3.77,3.59,8.02,7.13,16.03,10.25,24.25,1.65,4.33-1.39,8.41-7.78,15.63-2.04,2.28-2.46,4.4-.87,7.05,10.37,17.22,24.86,29.67,43.93,36.99,2.8,1.06,4.89.4,6.67-1.75,10.1-12.09,11.13-15.63,16.45-13.15,25.57,11.99,27.57,12.48,27.68,15.33.87,21.13-18.89,28.75-30.87,27.89Z"/>
  </g>
</svg>